# xmcd CD database file
#
# Track frame offsets:
#	150
#	5163
#	22813
#	44613
#	72574
#	88589
#	110827
#	130125
#	146838
#	166151
#	200151
#	218911
#	244298
#	267106
#	283758
#
# Disc length: 3835 seconds
#
# Revision: 0
# Processed by: cddbd v1.5.2PL0 Copyright (c) Steve Scherf et al.
# Submitted via: CDex 1.70beta2
#
DISCID=ec0ef90f
DTITLE=Cooder Graw - Live @ Firewater Bar and Grill
DYEAR=2006
DGENRE=Country
TTITLE0=Firewater Emcee intros the band (Live @ Firewater)
TTITLE1=Llano Estacado (Live @ Firewater)
TTITLE2=Northeast Texas Women (Live @ Firewater)
TTITLE3=Come Pick Me Up (Live @ Firewater)
TTITLE4=Salty Boogie (Live @ Firewater)
TTITLE5=Lifetime Stand (Live @ Firewater)
TTITLE6=Shotgun Wedding (Live @ Firewater)
TTITLE7=New Dress (Live @ Firewater)
TTITLE8=Ain't Living Long Like This (Live @ Firewater)
TTITLE9=That Girl Crystal (Live @ Firewater)
TTITLE10=Dirty Little Hometown Girl (Live @ Firewater)
TTITLE11=She Loves Too Much (Live @ Firewater)
TTITLE12=My Give A Damn Is Broken (Live @ Firewater)
TTITLE13=This Hurts (Live @ Firewater)
TTITLE14=15
EXTD=YEAR: 2006
EXTT0=
EXTT1=
EXTT2=
EXTT3=
EXTT4=
EXTT5=
EXTT6=
EXTT7=
EXTT8=
EXTT9=
EXTT10=
EXTT11=
EXTT12=
EXTT13=
EXTT14=
PLAYORDER=
